<svg width="31" height="31" viewBox="0 0 31 31" fill="none" xmlns="http://www.w3.org/2000/svg">
<ellipse cx="15.6314" cy="5.12288" rx="2.23305" ry="5.12288" fill="#AB4E68"/>
<ellipse cx="25.8771" cy="15.6314" rx="2.23305" ry="5.12288" transform="rotate(-90 25.8771 15.6314)" fill="#AB4E68"/>
<ellipse cx="5.12288" cy="15.6314" rx="2.23305" ry="5.12288" transform="rotate(-90 5.12288 15.6314)" fill="#AB4E68"/>
<ellipse cx="24.1167" cy="7.56584" rx="2.23305" ry="5.12288" transform="rotate(45 24.1167 7.56584)" fill="#AB4E68"/>
<ellipse cx="7.30314" cy="22.8031" rx="2.23305" ry="5.12288" transform="rotate(45 7.30314 22.8031)" fill="#AB4E68"/>
<ellipse cx="15.6314" cy="25.8771" rx="2.23305" ry="5.12288" fill="#AB4E68"/>
<ellipse cx="24.1167" cy="22.8031" rx="2.23305" ry="5.12288" transform="rotate(-45 24.1167 22.8031)" fill="#AB4E68"/>
<ellipse cx="7.30311" cy="7.56585" rx="2.23305" ry="5.12288" transform="rotate(-45 7.30311 7.56585)" fill="#AB4E68"/>
<path d="M18.3898 15.5C18.3898 17.096 17.096 18.3898 15.5 18.3898C13.904 18.3898 12.6102 17.096 12.6102 15.5C12.6102 13.904 13.904 12.6102 15.5 12.6102C17.096 12.6102 18.3898 13.904 18.3898 15.5Z" fill="#AB4E68"/>
</svg>
